<svg width="145" height="304" viewBox="0 0 145 304" fill="none" xmlns="http://www.w3.org/2000/svg">
<rect width="145" height="303" fill="url(#paint0_linear_13_2)"/>
<path d="M64.5 200.5C58.2956 193.946 50.3775 184.598 46.1382 187V303H16V162H51.6636C56.9566 162.354 62.2082 167.11 67.5 173.087H73C78.1365 168.075 83.7757 162.764 88.5 162H125V303H94.8617V186.5C93.1396 182.968 84.2615 192.758 75.5 201C71.9032 202.088 69.3166 202.595 64.5 200.5Z" fill="#2D3250"/>
<path d="M67.5 173.087C62.2082 167.11 56.9566 162.354 51.6636 162H16V303H46.1382V187C50.3775 184.598 58.2956 193.946 64.5 200.5C69.3166 202.595 71.9032 202.088 75.5 201C84.2615 192.758 93.1396 182.968 94.8617 186.5V303H125C125 303 125 274.8 125 162H88.5C83.7758 162.764 78.1365 168.075 73 173.087M67.5 173.087C69.3131 173.646 71.1248 173.432 73 173.087M67.5 173.087H73" stroke="#2D3250"/>
<defs>
<linearGradient id="paint0_linear_13_2" x1="72.5" y1="0" x2="72.5" y2="303" gradientUnits="userSpaceOnUse">
<stop offset="0.065" stop-color="#E57EF6"/>
<stop offset="0.468647" stop-color="#5D54B4"/>
</linearGradient>
</defs>
</svg>
